<svg xmlns="http://www.w3.org/2000/svg" width="16" height="16" fill="currentColor" class="bi bi-fonts" viewBox="0 0 16 16">
  <path d="M 13.04102,2.9663365 H 4.5310202 l -0.083,2.46 h 0.479 c 0.26,-1.544 0.758,-1.783 2.693,-1.845 l 0.424,-0.013 v 7.8269995 c 0,0.663 -0.144,0.82 -1.3,0.923 v 0.52 H 10.82602 v -0.52 c -1.1619998,-0.103 -1.3059998,-0.26 -1.3059998,-0.923 V 3.5683365 l 0.431,0.013 c 1.9339998,0.062 2.4339998,0.301 2.6929998,1.846 h 0.479 z"/>
  <path d="M 6.6577156,7.679499 H 2.0596119 l -0.044846,1.2852455 h 0.2588122 c 0.1404826,-0.806674 0.4095609,-0.931542 1.4550757,-0.963934 l 0.2290948,-0.0068 v 4.0892755 c 0,0.346391 -0.077806,0.428415 -0.7024131,0.482229 v 0.271678 H 5.4609127 V 12.565517 C 4.8330623,12.511701 4.7552575,12.429679 4.7552575,12.083288 V 7.9940185 l 0.2328762,0.0068 c 1.0449749,0.03239 1.3151339,0.157257 1.4550759,0.964455 h 0.258812 z" style="stroke-width:0.531313" />
</svg>
