<svg width="16" height="16" fill="currentColor" class="bi bi-quote" viewBox="0 0 16 16"
     xmlns="http://www.w3.org/2000/svg">
    <path d="m 3.9998177,3 a 1,1 0 0 0 -1,1 v 2.442 a 1,1 0 0 0 1,1 h 1.388 q 0,0.527 -0.062,1.054 -0.093,0.558 -0.31,0.992 -0.217,0.434 -0.559,0.683 -0.34,0.279 -0.868,0.279 V 12 q 0.868,0 1.52,-0.372 a 3.3,3.3 0 0 0 1.085,-0.992 4.9,4.9 0 0 0 0.62,-1.458 7.7,7.7 0 0 0 0.186,-1.736 V 4 a 1,1 0 0 0 -1,-1 z m 6,0 a 1,1 0 0 0 -1,1 v 2.442 a 1,1 0 0 0 1,1 h 1.3880003 q 0,0.527 -0.062,1.054 -0.094,0.558 -0.31,0.992 -0.217,0.434 -0.559,0.683 -0.34,0.279 -0.8680003,0.279 V 12 q 0.8680003,0 1.5200003,-0.372 a 3.3,3.3 0 0 0 1.085,-0.992 4.9,4.9 0 0 0 0.62,-1.458 7.7,7.7 0 0 0 0.186,-1.736 V 4 a 1,1 0 0 0 -1,-1 z"/>
</svg>
